<?xml version="1.0" encoding="utf-8"?>
<svg version="1.0" xmlns="http://www.w3.org/2000/svg" width="64.000000pt" height="64.000000pt"
				viewBox="0 0 64.000000 64.000000" preserveAspectRatio="xMidYMid meet">

				<g transform="translate(0.000000,64.000000) scale(0.100000,-0.100000)" fill="#000000" stroke="none">
					<path d="M195 633 c-16 -2 -49 -10 -72 -19 -43 -15 -63 -48 -63 -99 0 -13 -7
-28 -15 -35 -17 -14 -21 -100 -5 -116 5 -5 11 -70 12 -144 3 -129 4 -135 25
-145 14 -6 23 -18 23 -33 0 -30 42 -51 65 -32 8 7 15 23 15 36 l0 24 145 0
145 0 0 -24 c0 -13 7 -29 15 -36 23 -19 65 3 65 34 0 15 7 25 20 29 19 5 20
14 20 145 0 83 4 143 10 147 17 10 12 105 -5 111 -8 4 -15 16 -15 29 0 41 -22
86 -50 100 -54 28 -223 42 -335 28z m265 -73 c0 -19 -7 -20 -145 -20 -138 0
-145 1 -145 20 0 19 7 20 145 20 138 0 145 -1 145 -20z m50 -150 l0 -100 -195
0 -195 0 0 100 0 100 195 0 195 0 0 -100z m-293 -237 c9 -24 -33 -56 -57 -43
-28 15 -32 38 -10 60 17 17 24 18 41 10 11 -6 23 -18 26 -27z m264 27 c11 -6
19 -21 19 -35 0 -20 -24 -45 -44 -45 -10 0 -36 32 -36 45 0 13 26 45 36 45 3
0 14 -5 25 -10z" />
				</g>
			</svg>
